#!OML:ASF H:\Dans Jumps\Project 1\Capture day 1\Session 1\subject.ASF
:FULLY-SPECIFIED
:DEGREES
143
root 0.506215 16.2308 -15.5303 21.3239 -2.7522 -3.33293
lowerback 16.8059 0.0751456 -0.0541637
upperback 5.08533 0.193572 2.23496
thorax -3.99709 0.0818881 2.35335
lowerneck -18.151 1.10463 -2.11434
upperneck 11.5809 2.14884 -0.809809
head 6.47412 0.867607 0.30839
rclavicle -9.0944e-015 3.74212e-014
rhumerus -27.4101 -13.5588 -73.0935
rradius 27.998
rwrist 28.324
rhand -16.2566 -23.555
rfingers 7.12502
rthumb 9.95259 -53.2998
lclavicle -9.0944e-015 3.74212e-014
lhumerus -27.7664 -4.74164 79.0361
lradius 24.9548
lwrist 17.995
lhand -24.1979 -2.75767
lfingers 7.12502
lthumb 2.28621 27.2098
rfemur -53.9109 -1.7271 22.8981
rtibia 53.0223
rfoot -21.2179 -4.10212
rtoes -2.38384
lfemur -54.414 11.2842 -21.7513
ltibia 53.6995
lfoot -18.8304 9.54422
ltoes -11.8288
144
root 0.506336 16.1589 -15.5862 21.9873 -2.74444 -3.33046
lowerback 17.4501 0.10098 -0.125865
upperback 5.10809 0.221286 2.22629
thorax -4.3162 0.0970141 2.38401
lowerneck -18.376 1.10197 -2.14178
upperneck 10.8646 2.14899 -0.830641
head 6.27987 0.87403 0.303713
rclavicle 8.94531e-015 5.91384e-015
rhumerus -28.3457 -13.6909 -72.6449
rradius 27.8768
rwrist 28.3831
rhand -15.918 -23.5602
rfingers 7.12502
rthumb 10.2792 -53.289
lclavicle 8.94531e-015 5.91384e-015
lhumerus -28.6242 -4.85639 78.9921
lradius 24.6701
lwrist 18.0569
lhand -24.0008 -2.61214
lfingers 7.12502
lthumb 2.47656 27.3532
rfemur -55.5156 -1.71246 22.9604
rtibia 54.1532
rfoot -21.5073 -4.2072
rtoes -2.59685
lfemur -56.0282 11.1742 -21.9088
ltibia 54.8243
lfoot -19.0303 9.85566
ltoes -12.0875
145
root 0.505875 16.0847 -15.6415 22.6531 -2.73553 -3.32814
lowerback 18.1153 0.130689 -0.20323
upperback 5.12425 0.252291 2.2193
thorax -4.65273 0.114085 2.419
lowerneck -18.5902 1.09796 -2.16582
upperneck 10.1323 2.14671 -0.857901
head 6.07919 0.879319 0.296031
rclavicle -7.37988e-015 6.65929e-015
rhumerus -29.3436 -13.8375 -72.1682
rradius 27.7546
rwrist 28.436
rhand -15.5972 -23.5635
rfingers 7.12502
rthumb 10.5888 -53.2768
lclavicle -7.37988e-015 6.65929e-015
lhumerus -29.5531 -4.94098 78.963
lradius 24.4056
lwrist 18.1447
lhand -23.8007 -2.44693
lfingers 7.12502
lthumb 2.66983 27.5161
rfemur -57.1266 -1.67703 23.0146
rtibia 55.2872
rfoot -21.7835 -4.31887
rtoes -2.75874
lfemur -57.6491 11.0541 -22.0582
ltibia 55.9548
lfoot -19.2354 10.1813
ltoes -12.3566
146
root 0.504911 16.0087 -15.6958 23.3158 -2.72214 -3.32296
lowerback 18.8012 0.161812 -0.288392
upperback 5.13556 0.282786 2.21409
thorax -5.00433 0.131284 2.46043
lowerneck -18.8015 1.09493 -2.18595
upperneck 9.40189 2.14526 -0.890335
head 5.8791 0.884888 0.286179
rclavicle -6.48535e-015 -8.39865e-015
rhumerus -30.4032 -13.9983 -71.6607
rradius 27.6255
rwrist 28.4832
rhand -15.3299 -23.5473
rfingers 7.12502
rthumb 10.8465 -53.2472
lclavicle -6.48535e-015 -8.39865e-015
lhumerus -30.5595 -4.99072 78.9475
lradius 24.157
lwrist 18.2537
lhand -23.6639 -2.34835
lfingers 7.12502
lthumb 2.80192 27.613
rfemur -58.7343 -1.62862 23.0588
rtibia 56.4218
rfoot -22.0509 -4.44289
rtoes -2.8934
lfemur -59.2653 10.9205 -22.2002
ltibia 57.0868
lfoot -19.4488 10.5262
ltoes -12.6547
147
root 0.503285 15.9308 -15.749 23.9903 -2.71144 -3.31824
lowerback 19.4896 0.197851 -0.385508
upperback 5.13633 0.316307 2.21174
thorax -5.36781 0.150453 2.51096
lowerneck -19.0168 1.09279 -2.20195
upperneck 8.69531 2.14478 -0.92651
head 5.68766 0.890581 0.274767
rclavicle -1.72896e-014 1.73036e-014
rhumerus -31.5241 -14.1824 -71.109
rradius 27.4734
rwrist 28.5601
rhand -15.1109 -23.4844
rfingers 7.12502
rthumb 11.0578 -53.1731
lclavicle -1.72896e-014 1.73036e-014
lhumerus -31.6599 -5.02365 78.9564
lradius 23.9264
lwrist 18.386
lhand -23.6841 -2.39155
lfingers 7.12502
lthumb 2.78242 27.57
rfemur -60.2537 -1.5584 23.0935
rtibia 57.2761
rfoot -22.1342 -4.55577
rtoes -3.02476
lfemur -60.7943 10.7808 -22.3362
ltibia 57.9404
lfoot -19.5046 10.8144
ltoes -12.9784
148
root 0.501211 15.8513 -15.8008 24.6744 -2.69624 -3.31656
lowerback 20.1845 0.234283 -0.489223
upperback 5.12835 0.347873 2.21343
thorax -5.74316 0.169211 2.57
lowerneck -19.237 1.0883 -2.23161
upperneck 8.01205 2.14236 -0.943084
head 5.50427 0.896239 0.271769
rclavicle -1.32316e-015 9.64727e-015
rhumerus -32.6901 -14.3894 -70.5122
rradius 27.2888
rwrist 28.6847
rhand -14.9428 -23.371
rfingers 7.12502
rthumb 11.2199 -53.0509
lclavicle -1.32316e-015 9.64727e-015
lhumerus -32.8431 -5.00322 78.9659
lradius 23.717
lwrist 18.5447
lhand -23.7528 -2.45054
lfingers 7.12502
lthumb 2.71605 27.5119
rfemur -61.7855 -1.47384 23.1235
rtibia 58.1342
rfoot -22.2164 -4.69321
rtoes -3.15864
lfemur -62.3355 10.6296 -22.4597
ltibia 58.7983
lfoot -19.5711 11.117
ltoes -13.319
149
root 0.500748 15.8863 -15.8663 25.3875 -2.67923 -3.32157
lowerback 20.8616 0.271637 -0.592874
upperback 5.10796 0.379163 2.21657
thorax -6.12179 0.188343 2.6305
lowerneck -19.4766 1.08019 -2.26401
upperneck 7.36315 2.13515 -0.94513
head 5.3348 0.900178 0.273655
rclavicle -3.14328e-015 -1.03617e-014
rhumerus -33.8969 -14.6174 -69.872
rradius 27.0726
rwrist 28.8734
rhand -14.8106 -23.2083
rfingers 7.12502
rthumb 11.3474 -52.8813
lclavicle -3.14328e-015 -1.03617e-014
lhumerus -34.1042 -4.95166 78.9773
lradius 23.5182
lwrist 18.7495
lhand -23.8728 -2.57176
lfingers 7.12502
lthumb 2.60017 27.3921
rfemur -62.8818 -1.36711 23.1566
rtibia 58.5264
rfoot -22.3046 -4.86145
rtoes -3.31004
lfemur -63.4425 10.4597 -22.5745
ltibia 59.1921
lfoot -19.6432 11.4407
ltoes -13.6585
150
root 0.498318 15.8068 -15.9163 26.1276 -2.65599 -3.33192
lowerback 21.5241 0.309181 -0.694601
upperback 5.07789 0.409756 2.22227
thorax -6.50258 0.207619 2.69271
lowerneck -19.7311 1.06775 -2.3008
upperneck 6.73385 2.12248 -0.932799
head 5.17372 0.902179 0.280449
rclavicle -6.36111e-015 -4.94477e-015
rhumerus -35.1372 -14.851 -69.1921
rradius 26.8404
rwrist 29.1078
rhand -14.6636 -23.02
rfingers 7.12502
rthumb 11.4892 -52.6852
lclavicle -6.36111e-015 -4.94477e-015
lhumerus -35.4278 -4.8788 78.992
lradius 23.3303
lwrist 19.0419
lhand -23.9255 -2.63099
lfingers 7.12502
lthumb 2.54927 27.3335
rfemur -64.452 -1.25641 23.1845
rtibia 59.3651
rfoot -22.4128 -5.04688
rtoes -3.46234
lfemur -65.0257 10.2793 -22.6689
ltibia 60.0335
lfoot -19.7182 11.7731
ltoes -13.9767
151
root 0.495822 15.7261 -15.9651 26.8982 -2.62664 -3.35544
lowerback 22.1738 0.346559 -0.785508
upperback 5.03533 0.441228 2.22928
thorax -6.88979 0.227726 2.74983
lowerneck -19.9819 1.05038 -2.32675
upperneck 6.09867 2.10004 -0.91617
head 5.0103 0.90018 0.285873
rclavicle 8.74653e-015 1.68222e-014
rhumerus -36.4173 -15.1077 -68.4699
rradius 26.6067
rwrist 29.4153
rhand -14.4187 -22.8124
rfingers 7.12502
rthumb 11.7253 -52.4643
lclavicle 8.74653e-015 1.68222e-014
lhumerus -36.809 -4.78484 79.0041
lradius 23.1601
lwrist 19.4315
lhand -23.874 -2.57119
lfingers 7.12502
lthumb 2.59909 27.3927
rfemur -66.0496 -1.13199 23.219
rtibia 60.2007
rfoot -22.5429 -5.25787
rtoes -3.62283
lfemur -66.6412 10.0814 -22.7356
ltibia 60.8739
lfoot -19.7902 12.1255
ltoes -14.2694
152
root 0.493186 15.6442 -16.0127 27.697 -2.58791 -3.3759
lowerback 22.8143 0.384434 -0.873435
upperback 4.98123 0.472712 2.23495
thorax -7.28435 0.248348 2.80373
lowerneck -20.2199 1.02867 -2.34789
upperneck 5.44016 2.07002 -0.89871
head 4.8376 0.895021 0.289888
rclavicle 9.93923e-016 2.87741e-014
rhumerus -37.7382 -15.3556 -67.7201
rradius 26.3821
rwrist 29.7237
rhand -14.1631 -22.6078
rfingers 7.12502
rthumb 11.9718 -52.2455
lclavicle 9.93923e-016 2.87741e-014
lhumerus -38.2324 -4.69349 79.0258
lradius 22.995
lwrist 19.9016
lhand -23.7334 -2.4343
lfingers 7.12502
lthumb 2.73488 27.5279
rfemur -67.7601 -1.00286 23.2439
rtibia 61.2894
rfoot -22.8556 -5.52032
rtoes -3.69239
lfemur -68.368 9.85508 -22.7866
ltibia 61.9642
lfoot -20.0202 12.5715
ltoes -14.5401
153
root 0.490163 15.5613 -16.0593 28.5102 -2.54327 -3.39314
lowerback 23.4649 0.424499 -0.959983
upperback 4.91553 0.505939 2.23791
thorax -7.69672 0.270423 2.85345
lowerneck -20.4277 1.00459 -2.3617
upperneck 4.74793 2.0344 -0.887002
head 4.64992 0.887415 0.290095
rclavicle -3.23025e-015 1.50082e-014
rhumerus -39.1101 -15.5965 -66.943
rradius 26.1673
rwrist 30.0202
rhand -13.926 -22.4128
rfingers 7.12502
rthumb 12.2005 -52.037
lclavicle -3.23025e-015 1.50082e-014
lhumerus -39.7013 -4.58725 79.0504
lradius 22.8344
lwrist 20.4325
lhand -23.59 -2.34517
lfingers 7.12502
lthumb 2.87331 27.6152
rfemur -69.4779 -0.863252 23.2556
rtibia 62.3721
rfoot -23.1693 -5.80945
rtoes -3.57651
lfemur -70.1013 9.60574 -22.8189
ltibia 63.0454
lfoot -20.2526 13.0399
ltoes -14.7335
154
root 0.48672 15.4775 -16.1048 29.3197 -2.49395 -3.39892
lowerback 24.1482 0.467831 -1.05125
upperback 4.83887 0.540596 2.23682
thorax -8.13803 0.294042 2.90124
lowerneck -20.6069 0.978101 -2.37036
upperneck 4.03102 1.99382 -0.881207
head 4.45047 0.877431 0.286966
rclavicle 7.15625e-015 -1.88845e-015
rhumerus -40.5421 -15.8168 -66.1454
rradius 25.9705
rwrist 30.2444
rhand -13.7529 -22.2488
rfingers 7.12502
rthumb 12.3674 -51.863
lclavicle 7.15625e-015 -1.88845e-015
lhumerus -41.2157 -4.46478 79.0757
lradius 22.6698
lwrist 20.998
lhand -23.7245 -2.47696
lfingers 7.12502
lthumb 2.74347 27.4851
rfemur -71.183 -0.717741 23.2442
rtibia 63.4499
rfoot -23.4785 -6.15051
rtoes -3.31509
lfemur -71.8164 9.334 -22.8384
ltibia 64.1155
lfoot -20.4953 13.5278
ltoes -14.8091
